<svg id="Capa_1" enable-background="new 0 0 512 512" height="512" viewBox="0 0 512 512" width="512" xmlns="http://www.w3.org/2000/svg"><g fill="#e50914"><path d="m48.572 187.232v77.839l-28.081-77.839h-20.491v137.548c7.173-1.021 14.36-1.999 21.56-2.937v-74.798l24.969 71.727c7.853-.911 15.721-1.773 23.603-2.584v-128.956z"/><path d="m150.755 208.668v-21.435h-59.89v126.95c19.872-1.806 39.835-3.294 59.889-4.449v-21.246c-12.813.741-25.59 1.617-38.329 2.619v-32.163c8.359-.083 19.365-.338 29.116-.217v-21.246c-7.79-.019-20.31.109-29.116.222v-29.035z"/><path d="m164.576 187.232v21.435h22.566v99.342c7.174-.271 14.364-.494 21.56-.682v-98.66h22.565v-21.435z"/><path d="m305.278 208.668v-21.435h-60.189v119.513l21.561-.005v-49.049h29.226v-21.244h-29.226v-27.781h38.628z"/><path d="m340.658 287.424v-100.204h-21.56v120.58c19.594.674 39.107 1.663 58.539 2.958v-21.244c-12.292-.82-24.619-1.515-36.979-2.09z"/><path d="m472.706 223.417-14.027-36.185h-23.326l25.067 64.657-27.366 63.431c7.571.738 15.122 1.526 22.662 2.359l15.915-36.881 15.762 40.656c8.21 1.056 16.4 2.157 24.573 3.324l.033-.014-28.087-72.438 28.088-65.094h-23.682z"/><path d="m395.412 187.232v124.805c7.197.551 14.384 1.142 21.561 1.781v-126.586z"/></g></svg>